<mxfile host="Electron" modified="2024-07-18T14:26:53.899Z" agent="Mozilla/5.0 (Macintosh; Intel Mac OS X 10_15_7) AppleWebKit/537.36 (KHTML, like Gecko) draw.io/24.5.1 Chrome/124.0.6367.207 Electron/30.0.6 Safari/537.36" etag="FbgRGxFln_O5mDDIaa3l" version="24.5.1" type="device">
  <diagram name="Page-1" id="1-LLrASRTbqvOcYznkX9">
    <mxGraphModel dx="714" dy="854" grid="1" gridSize="10" guides="1" tooltips="1" connect="1" arrows="1" fold="1" page="1" pageScale="1" pageWidth="850" pageHeight="1100" math="0" shadow="0">
      <root>
        <mxCell id="0" />
        <mxCell id="1" parent="0" />
        <mxCell id="iG7MLakBQ4mw4mxVRbpW-2" value="setup_" style="ellipse;whiteSpace=wrap;html=1;aspect=fixed;" vertex="1" parent="1">
          <mxGeometry x="370" y="270" width="80" height="80" as="geometry" />
        </mxCell>
        <mxCell id="iG7MLakBQ4mw4mxVRbpW-14" value="" style="edgeStyle=orthogonalEdgeStyle;rounded=0;orthogonalLoop=1;jettySize=auto;html=1;" edge="1" parent="1" source="iG7MLakBQ4mw4mxVRbpW-3" target="iG7MLakBQ4mw4mxVRbpW-2">
          <mxGeometry relative="1" as="geometry" />
        </mxCell>
        <mxCell id="iG7MLakBQ4mw4mxVRbpW-15" value="pmd:relatesTo" style="edgeLabel;html=1;align=center;verticalAlign=middle;resizable=0;points=[];" vertex="1" connectable="0" parent="iG7MLakBQ4mw4mxVRbpW-14">
          <mxGeometry x="-0.0751" y="-3" relative="1" as="geometry">
            <mxPoint as="offset" />
          </mxGeometry>
        </mxCell>
        <mxCell id="iG7MLakBQ4mw4mxVRbpW-3" value="hutch_" style="ellipse;whiteSpace=wrap;html=1;aspect=fixed;fontFamily=Helvetica;fontSize=11;fontColor=default;labelBackgroundColor=default;" vertex="1" parent="1">
          <mxGeometry x="370" y="423.95" width="80" height="80" as="geometry" />
        </mxCell>
        <mxCell id="iG7MLakBQ4mw4mxVRbpW-4" style="edgeStyle=none;rounded=0;orthogonalLoop=1;jettySize=auto;html=1;exitX=0;exitY=0.5;exitDx=0;exitDy=0;entryX=1;entryY=0.5;entryDx=0;entryDy=0;strokeColor=default;align=center;verticalAlign=middle;fontFamily=Helvetica;fontSize=11;fontColor=default;labelBackgroundColor=default;endArrow=classic;" edge="1" parent="1" source="iG7MLakBQ4mw4mxVRbpW-6" target="iG7MLakBQ4mw4mxVRbpW-13">
          <mxGeometry relative="1" as="geometry" />
        </mxCell>
        <mxCell id="iG7MLakBQ4mw4mxVRbpW-5" value="rdfs:subClassOf" style="edgeLabel;html=1;align=center;verticalAlign=middle;resizable=0;points=[];fontFamily=Helvetica;fontSize=11;fontColor=default;labelBackgroundColor=default;" vertex="1" connectable="0" parent="iG7MLakBQ4mw4mxVRbpW-4">
          <mxGeometry x="0.136" y="1" relative="1" as="geometry">
            <mxPoint x="12" y="-1" as="offset" />
          </mxGeometry>
        </mxCell>
        <mxCell id="iG7MLakBQ4mw4mxVRbpW-6" value="pmd:ValueObject" style="ellipse;whiteSpace=wrap;html=1;aspect=fixed;fontFamily=Helvetica;fontSize=11;fontColor=default;labelBackgroundColor=default;" vertex="1" parent="1">
          <mxGeometry x="560" y="693.95" width="80" height="80" as="geometry" />
        </mxCell>
        <mxCell id="iG7MLakBQ4mw4mxVRbpW-7" value="" style="edgeStyle=none;rounded=0;orthogonalLoop=1;jettySize=auto;html=1;strokeColor=default;align=center;verticalAlign=middle;fontFamily=Helvetica;fontSize=11;fontColor=default;labelBackgroundColor=default;endArrow=classic;" edge="1" parent="1" source="iG7MLakBQ4mw4mxVRbpW-9" target="iG7MLakBQ4mw4mxVRbpW-3">
          <mxGeometry relative="1" as="geometry" />
        </mxCell>
        <mxCell id="iG7MLakBQ4mw4mxVRbpW-8" value="rdf:type" style="edgeLabel;html=1;align=center;verticalAlign=middle;resizable=0;points=[];fontFamily=Helvetica;fontSize=11;fontColor=default;labelBackgroundColor=default;" vertex="1" connectable="0" parent="iG7MLakBQ4mw4mxVRbpW-7">
          <mxGeometry x="0.0667" y="-1" relative="1" as="geometry">
            <mxPoint as="offset" />
          </mxGeometry>
        </mxCell>
        <mxCell id="iG7MLakBQ4mw4mxVRbpW-9" value="pmdao:hutch" style="ellipse;whiteSpace=wrap;html=1;aspect=fixed;fontFamily=Helvetica;fontSize=11;fontColor=default;labelBackgroundColor=default;" vertex="1" parent="1">
          <mxGeometry x="370" y="563.95" width="80" height="80" as="geometry" />
        </mxCell>
        <mxCell id="iG7MLakBQ4mw4mxVRbpW-11" value="" style="edgeStyle=none;rounded=0;orthogonalLoop=1;jettySize=auto;html=1;strokeColor=default;align=center;verticalAlign=middle;fontFamily=Helvetica;fontSize=11;fontColor=default;labelBackgroundColor=default;endArrow=classic;" edge="1" parent="1" source="iG7MLakBQ4mw4mxVRbpW-13" target="iG7MLakBQ4mw4mxVRbpW-9">
          <mxGeometry relative="1" as="geometry" />
        </mxCell>
        <mxCell id="iG7MLakBQ4mw4mxVRbpW-12" value="rdf:type" style="edgeLabel;html=1;align=center;verticalAlign=middle;resizable=0;points=[];fontFamily=Helvetica;fontSize=11;fontColor=default;labelBackgroundColor=default;" vertex="1" connectable="0" parent="iG7MLakBQ4mw4mxVRbpW-11">
          <mxGeometry x="-0.12" y="2" relative="1" as="geometry">
            <mxPoint as="offset" />
          </mxGeometry>
        </mxCell>
        <mxCell id="iG7MLakBQ4mw4mxVRbpW-13" value="pmd:Location" style="ellipse;whiteSpace=wrap;html=1;aspect=fixed;fontFamily=Helvetica;fontSize=11;fontColor=default;labelBackgroundColor=default;" vertex="1" parent="1">
          <mxGeometry x="370" y="693.95" width="80" height="80" as="geometry" />
        </mxCell>
        <mxCell id="iG7MLakBQ4mw4mxVRbpW-17" value="" style="edgeStyle=orthogonalEdgeStyle;rounded=0;orthogonalLoop=1;jettySize=auto;html=1;" edge="1" parent="1" source="iG7MLakBQ4mw4mxVRbpW-16" target="iG7MLakBQ4mw4mxVRbpW-2">
          <mxGeometry relative="1" as="geometry" />
        </mxCell>
        <mxCell id="iG7MLakBQ4mw4mxVRbpW-18" value="rdf:type" style="edgeLabel;html=1;align=center;verticalAlign=middle;resizable=0;points=[];" vertex="1" connectable="0" parent="iG7MLakBQ4mw4mxVRbpW-17">
          <mxGeometry x="0.175" y="-1" relative="1" as="geometry">
            <mxPoint as="offset" />
          </mxGeometry>
        </mxCell>
        <mxCell id="iG7MLakBQ4mw4mxVRbpW-16" value="pmd:ProcessingNode" style="ellipse;whiteSpace=wrap;html=1;aspect=fixed;fontFamily=Helvetica;fontSize=11;fontColor=default;labelBackgroundColor=default;" vertex="1" parent="1">
          <mxGeometry x="180" y="270" width="80" height="80" as="geometry" />
        </mxCell>
      </root>
    </mxGraphModel>
  </diagram>
</mxfile>
